<?xml version="1.0" encoding="UTF-8" standalone="no"?>
<!-- Created with Inkscape (http://www.inkscape.org/) -->

<svg
   xmlns:dc="http://purl.org/dc/elements/1.1/"
   xmlns:cc="http://creativecommons.org/ns#"
   xmlns:rdf="http://www.w3.org/1999/02/22-rdf-syntax-ns#"
   xmlns:svg="http://www.w3.org/2000/svg"
   xmlns="http://www.w3.org/2000/svg"
   xmlns:sodipodi="http://sodipodi.sourceforge.net/DTD/sodipodi-0.dtd"
   xmlns:inkscape="http://www.inkscape.org/namespaces/inkscape"
   width="256px"
   height="256px"
   id="svg3020"
   version="1.1"
   inkscape:version="0.48.4 r9939"
   sodipodi:docname="floppydisk.svg">
  <defs
     id="defs3022" />
  <sodipodi:namedview
     id="base"
     pagecolor="#ffffff"
     bordercolor="#666666"
     borderopacity="1.0"
     inkscape:pageopacity="0.0"
     inkscape:pageshadow="2"
     inkscape:zoom="2.8284271"
     inkscape:cx="115.13849"
     inkscape:cy="113.17163"
     inkscape:current-layer="layer2"
     showgrid="true"
     inkscape:document-units="px"
     inkscape:grid-bbox="true"
     inkscape:window-width="1081"
     inkscape:window-height="849"
     inkscape:window-x="771"
     inkscape:window-y="160"
     inkscape:window-maximized="0">
    <inkscape:grid
       type="xygrid"
       id="grid3101" />
  </sodipodi:namedview>
  <metadata
     id="metadata3025">
    <rdf:RDF>
      <cc:Work
         rdf:about="">
        <dc:format>image/svg+xml</dc:format>
        <dc:type
           rdf:resource="http://purl.org/dc/dcmitype/StillImage" />
        <dc:title />
      </cc:Work>
    </rdf:RDF>
  </metadata>
  <g
     id="layer1"
     inkscape:label="lines"
     inkscape:groupmode="layer"
     style="display:inline">
    <path
       style="fill:none;stroke:#000000;stroke-width:8px;stroke-linecap:butt;stroke-linejoin:miter;stroke-opacity:1"
       d="m 221.25,27.25 0,202.5 -45,0 -120,0 -22.5,-22.5 0,-180 z"
       id="path3028"
       inkscape:connector-curvature="0"
       sodipodi:nodetypes="ccccccc" />
    <path
       style="fill:none;stroke:#000000;stroke-width:8px;stroke-linecap:butt;stroke-linejoin:miter;stroke-opacity:1"
       d="m 80,161 0,67.5 97.5,0 0,-67.5 z"
       id="path3028-2"
       inkscape:connector-curvature="0"
       sodipodi:nodetypes="ccccc" />
    <path
       style="fill:none;stroke:#000000;stroke-width:16px;stroke-linecap:butt;stroke-linejoin:miter;stroke-opacity:1"
       d="m 110,171 0,52.5 15,0 0,-52.5 z"
       id="path3056"
       inkscape:connector-curvature="0"
       sodipodi:nodetypes="ccccc" />
    <path
       style="fill:none;stroke:#000000;stroke-width:8px;stroke-linecap:butt;stroke-linejoin:miter;stroke-opacity:1"
       d="m 75,56 100,0"
       id="path3229"
       inkscape:connector-curvature="0"
       sodipodi:nodetypes="cc" />
    <path
       style="fill:none;stroke:#000000;stroke-width:8px;stroke-linecap:butt;stroke-linejoin:miter;stroke-opacity:1"
       d="m 75,86 100,0"
       id="path3231"
       inkscape:connector-curvature="0"
       sodipodi:nodetypes="cc" />
  </g>
  <g
     inkscape:groupmode="layer"
     id="layer2"
     inkscape:label="colors"
     style="display:inline">
    <path
       style="fill:#00ccff;fill-opacity:1"
       d="m 47.943377,215.53438 -10.162374,-10.16691 0,-87.06028 0,-87.060271 89.625787,0 89.62578,0 0,97.227181 0,97.22719 -17.67767,0 -17.67767,0 0,-34.47146 0,-34.47146 -52.85623,0 -52.856231,0 0,34.47146 0,34.47146 -8.929509,0 -8.929509,0 -10.162374,-10.16691 0,0 z M 175.31327,86.047695 l 0,-4.242641 -50.20458,0 -50.204581,0 0,4.242641 0,4.242641 50.204581,0 50.20458,0 0,-4.242641 z m 0,-30.052038 0,-4.242641 -50.20458,0 -50.204581,0 0,4.242641 0,4.24264 50.204581,0 50.20458,0 0,-4.24264 z"
       id="path3048"
       inkscape:connector-curvature="0" />
  </g>
  <g
     inkscape:groupmode="layer"
     id="layer3"
     inkscape:label="monochrome"
     style="display:inline" />
</svg>
