<?xml version="1.0" encoding="UTF-8" standalone="no"?>
<!-- Created with Inkscape (http://www.inkscape.org/) -->

<svg
   xmlns:dc="http://purl.org/dc/elements/1.1/"
   xmlns:cc="http://creativecommons.org/ns#"
   xmlns:rdf="http://www.w3.org/1999/02/22-rdf-syntax-ns#"
   xmlns:svg="http://www.w3.org/2000/svg"
   xmlns="http://www.w3.org/2000/svg"
   xmlns:sodipodi="http://sodipodi.sourceforge.net/DTD/sodipodi-0.dtd"
   xmlns:inkscape="http://www.inkscape.org/namespaces/inkscape"
   width="256px"
   height="256px"
   id="svg3020"
   version="1.1"
   inkscape:version="0.48.5 r10040"
   sodipodi:docname="openfolder.svg">
  <defs
     id="defs3022" />
  <sodipodi:namedview
     id="base"
     pagecolor="#ffffff"
     bordercolor="#666666"
     borderopacity="1.0"
     inkscape:pageopacity="0.0"
     inkscape:pageshadow="2"
     inkscape:zoom="2.75"
     inkscape:cx="141.58214"
     inkscape:cy="135.14201"
     inkscape:current-layer="layer2"
     showgrid="true"
     inkscape:document-units="px"
     inkscape:grid-bbox="true"
     inkscape:window-width="1081"
     inkscape:window-height="849"
     inkscape:window-x="2062"
     inkscape:window-y="311"
     inkscape:window-maximized="0">
    <inkscape:grid
       type="xygrid"
       id="grid3101" />
  </sodipodi:namedview>
  <metadata
     id="metadata3025">
    <rdf:RDF>
      <cc:Work
         rdf:about="">
        <dc:format>image/svg+xml</dc:format>
        <dc:type
           rdf:resource="http://purl.org/dc/dcmitype/StillImage" />
        <dc:title />
      </cc:Work>
    </rdf:RDF>
  </metadata>
  <g
     id="layer1"
     inkscape:label="lines"
     inkscape:groupmode="layer"
     style="display:inline">
    <path
       style="fill:none;stroke:#000000;stroke-width:8px;stroke-linecap:butt;stroke-linejoin:miter;stroke-opacity:1"
       d="m 30,211 0,-145 45,0 15,15 110,0 0,40"
       id="path3028"
       inkscape:connector-curvature="0"
       sodipodi:nodetypes="cccccc" />
    <path
       style="fill:none;stroke:#000000;stroke-width:8px;stroke-linecap:butt;stroke-linejoin:miter;stroke-opacity:1"
       d="m 70,121 -40,90 170,0 30,-90 z"
       id="path3028-2"
       inkscape:connector-curvature="0"
       sodipodi:nodetypes="ccccc" />
  </g>
  <g
     inkscape:groupmode="layer"
     id="layer2"
     inkscape:label="colors"
     style="display:inline">
    <path
       style="fill:#00ccff"
       d="m 37.872352,203.63981 c 0.777197,-1.75 8.940802,-20.11818 18.141344,-40.81818 l 16.728259,-37.63637 75.656455,-0.0918 c 41.61105,-0.0505 75.65646,0.0305 75.65646,0.18 0,0.14948 -6.09491,18.55896 -13.54424,40.90995 l -13.54424,40.63818 -80.25356,0 -80.253563,0 1.413085,-3.18182 z"
       id="path3041"
       inkscape:connector-curvature="0" />
    <path
       style="fill:#00ccff"
       d="m 34.246207,130.5489 -0.0095,-60.454546 19.366963,0 19.366965,0 7.447891,7.454545 7.447891,7.454546 53.912415,0 53.91242,0 0,15.999995 0,16 -64.27273,0.003 -64.272724,0.003 -16.445023,36.99727 -16.445023,36.99727 -0.0095,-60.45454 z"
       id="path3043"
       inkscape:connector-curvature="0" />
  </g>
  <g
     inkscape:groupmode="layer"
     id="layer3"
     inkscape:label="monochrome"
     style="display:inline" />
</svg>
